<svg width="36" height="27" viewBox="0 0 36 27" fill="none" xmlns="http://www.w3.org/2000/svg">
<path d="M30.4743 2.2438C28.1682 1.20322 25.7181 0.446442 23.143 0.00183345C23.095 0.00183345 23.0469 0.0018333 23.0277 0.0585919C22.7106 0.616718 22.3551 1.33566 22.1149 1.90325C19.3284 1.49648 16.59 1.49648 13.8804 1.90325C13.6306 1.31674 13.2751 0.607258 12.9196 0.0585919C12.8907 0.0207528 12.8523 -0.00762631 12.8043 0.00183345C10.5943 0.436983 7.7694 1.2316 5.50179 2.2438C5.48258 2.2438 5.46336 2.26272 5.45375 2.28164C0.745587 9.18726 -0.503517 15.8091 0.169078 22.4309C0.169078 22.4593 0.188295 22.4971 0.21712 22.5255C3.29184 24.758 6.27047 26.1202 9.21067 27C9.25872 27 9.30676 27 9.33558 26.9622C10.0274 26.0351 10.6423 25.0513 11.1804 24.0107C11.2092 23.954 11.1804 23.8783 11.1132 23.8594C10.1523 23.481 9.19146 23.0458 8.29787 22.535C8.23061 22.4971 8.221 22.3931 8.29787 22.3458C8.49004 22.2039 8.68221 22.062 8.85516 21.9201C8.88399 21.8917 8.93203 21.8917 8.97046 21.9012C14.8701 24.5499 21.2693 24.5499 27.0344 21.9012C27.0729 21.8823 27.1209 21.8917 27.1497 21.9106C27.3323 22.062 27.5149 22.2039 27.707 22.3458C27.7743 22.3931 27.7647 22.4971 27.707 22.535C26.8134 23.0553 25.8814 23.481 24.8917 23.8594C24.8245 23.8877 24.7957 23.954 24.8341 24.0202C25.3722 25.0607 25.9967 26.0351 26.6597 26.9527C26.6885 26.9905 26.7366 27.0095 26.7846 26.9905C29.7248 26.0919 32.7131 24.7391 35.7974 22.5161C35.8262 22.4971 35.8454 22.4688 35.8454 22.4215C36.5949 14.7685 34.5867 8.13723 30.5223 2.27218C30.5223 2.25326 30.4935 2.23434 30.4743 2.23434V2.2438ZM12.026 18.42C10.2003 18.42 8.75907 16.8118 8.75907 14.8253C8.75907 12.8387 10.2003 11.2306 12.026 11.2306C13.8516 11.2306 15.2929 12.8387 15.2929 14.8253C15.2929 16.8118 13.8516 18.42 12.026 18.42ZM24.0366 18.42C22.211 18.42 20.7697 16.8118 20.7697 14.8253C20.7697 12.8387 22.211 11.2306 24.0366 11.2306C25.8622 11.2306 27.3035 12.8387 27.3035 14.8253C27.3035 16.8118 25.8622 18.42 24.0366 18.42Z" fill="url(#paint0_linear_480_35)"/>
<defs>
<linearGradient id="paint0_linear_480_35" x1="18" y1="0" x2="18" y2="27" gradientUnits="userSpaceOnUse">
<stop stop-color="#D9042D"/>
<stop offset="0.473958" stop-color="#91033B"/>
<stop offset="1" stop-color="#520651"/>
</linearGradient>
</defs>
</svg>
