<svg width="35" height="28" viewBox="0 0 35 28" fill="none" xmlns="http://www.w3.org/2000/svg">
<path d="M35 3.29412C33.7118 3.87059 32.3231 4.24941 30.8843 4.43059C32.3566 3.55765 33.4943 2.17412 34.0296 0.510588C32.641 1.33412 31.1018 1.91059 29.479 2.24C28.1573 0.82353 26.3002 0 24.1922 0C20.2605 0 17.0483 3.16235 17.0483 7.06588C17.0483 7.62588 17.1152 8.16941 17.2323 8.68C11.2763 8.38353 5.97275 5.56706 2.44264 1.30118C1.82361 2.33882 1.47228 3.55765 1.47228 4.84235C1.47228 7.29647 2.72706 9.47059 4.66778 10.7059C3.47992 10.7059 2.37572 10.3765 1.40535 9.88235C1.40535 9.88235 1.40535 9.88235 1.40535 9.93176C1.40535 13.3576 3.88145 16.2235 7.16061 16.8659C6.55832 17.0306 5.92256 17.1129 5.27008 17.1129C4.81836 17.1129 4.36664 17.0635 3.93164 16.9812C4.83509 19.7647 7.46176 21.84 10.6238 21.8894C8.18117 23.8 5.08604 24.92 1.7065 24.92C1.13767 24.92 0.568834 24.8871 0 24.8212C3.17878 26.8306 6.95985 28 11.0086 28C24.1922 28 31.4364 17.2282 31.4364 7.88941C31.4364 7.57647 31.4364 7.28 31.4197 6.96706C32.825 5.97882 34.0296 4.72706 35 3.29412Z" fill="url(#paint0_linear_228_11)"/>
<defs>
<linearGradient id="paint0_linear_228_11" x1="17.5" y1="0" x2="17.5" y2="28" gradientUnits="userSpaceOnUse">
<stop stop-color="#D9042D"/>
<stop offset="0.473958" stop-color="#91033B"/>
<stop offset="1" stop-color="#520651"/>
</linearGradient>
</defs>
</svg>
