<svg width="31" height="31" viewBox="0 0 31 31" fill="none" xmlns="http://www.w3.org/2000/svg">
<path d="M15.5 0C19.6109 0 23.5533 1.63303 26.4602 4.53985C29.367 7.44666 31 11.3891 31 15.5C31 17.5355 30.5991 19.551 29.8201 21.4316C29.0412 23.3121 27.8995 25.0208 26.4602 26.4602C23.5533 29.367 19.6109 31 15.5 31C11.3891 31 7.44666 29.367 4.53984 26.4602C1.63303 23.5533 0 19.6109 0 15.5C0 13.4645 0.400919 11.449 1.17987 9.56841C1.95882 7.68786 3.10054 5.97915 4.53984 4.53985C5.97915 3.10054 7.68786 1.95881 9.56841 1.17987C11.449 0.400919 13.4645 1.90735e-06 15.5 0ZM17.05 24.8L17.05 12.4L22.475 17.825L24.676 15.624L15.5 6.448L6.324 15.624L8.525 17.825L13.95 12.4L13.95 24.8H17.05Z" fill="url(#paint0_linear_226_44)"/>
<defs>
<linearGradient id="paint0_linear_226_44" x1="0" y1="15.5" x2="31" y2="15.5" gradientUnits="userSpaceOnUse">
<stop stop-color="#D9042D"/>
<stop offset="0.473958" stop-color="#91033B"/>
<stop offset="1" stop-color="#520651"/>
</linearGradient>
</defs>
</svg>
