<svg width="31" height="31" viewBox="0 0 31 31" fill="none" xmlns="http://www.w3.org/2000/svg">
<path d="M15.5 31C11.3891 31 7.44666 29.367 4.53985 26.4602C1.63303 23.5533 0 19.6109 0 15.5C0 13.4645 0.400919 11.449 1.17987 9.56841C1.95881 7.68786 3.10054 5.97915 4.53985 4.53984C7.44666 1.63303 11.3891 0 15.5 0C19.6109 0 23.5533 1.63303 26.4602 4.53984C29.367 7.44666 31 11.3891 31 15.5C31 17.5355 30.5991 19.551 29.8201 21.4316C29.0412 23.3121 27.8995 25.0208 26.4602 26.4602C25.0208 27.8995 23.3121 29.0412 21.4316 29.8201C19.551 30.5991 17.5355 31 15.5 31ZM13.95 6.2V18.6L8.525 13.175L6.324 15.376L15.5 24.552L24.676 15.376L22.475 13.175L17.05 18.6V6.2L13.95 6.2Z" fill="url(#paint0_linear_223_22)"/>
<defs>
<linearGradient id="paint0_linear_223_22" x1="31" y1="15.5" x2="0" y2="15.5" gradientUnits="userSpaceOnUse">
<stop stop-color="#D9042D"/>
<stop offset="0.473958" stop-color="#91033B"/>
<stop offset="1" stop-color="#520651"/>
</linearGradient>
</defs>
</svg>
