<svg width="230" height="183" viewBox="0 0 230 183" fill="none" xmlns="http://www.w3.org/2000/svg">
<path d="M131.851 60.2422V145.491C131.851 151.821 129.292 157.893 124.737 162.369C120.182 166.845 114.004 169.36 107.563 169.36C101.121 169.36 94.9431 166.845 90.3882 162.369C85.8332 157.893 83.2743 151.821 83.2743 145.491C83.2743 139.16 85.8332 133.089 90.3882 128.612C94.9431 124.136 101.121 121.621 107.563 121.621C111.31 121.621 114.849 122.44 117.972 123.94V83.9072L48.5767 98.4335V159.13C48.5767 165.461 46.0177 171.532 41.4628 176.009C36.9078 180.485 30.73 183 24.2883 183C17.8467 183 11.6688 180.485 7.11389 176.009C2.55894 171.532 0 165.461 0 159.13C0 152.8 2.55894 146.729 7.11389 142.252C11.6688 137.776 17.8467 135.261 24.2883 135.261C28.0357 135.261 31.5748 136.079 34.6976 137.58V80.7019L131.851 60.2422Z" fill="url(#paint0_linear_198_32)"/>
<path d="M190.956 22.7329V48.7811C190.956 50.7154 190.184 52.5705 188.81 53.9383C187.436 55.3061 185.572 56.0745 183.628 56.0745C181.684 56.0745 179.82 55.3061 178.446 53.9383C177.072 52.5705 176.3 50.7154 176.3 48.7811C176.3 46.8467 177.072 44.9916 178.446 43.6238C179.82 42.256 181.684 41.4876 183.628 41.4876C184.759 41.4876 185.827 41.7376 186.769 42.1961V29.9639L165.831 34.4025V52.9488C165.831 54.8831 165.058 56.7382 163.684 58.106C162.31 59.4738 160.446 60.2422 158.502 60.2422C156.559 60.2422 154.695 59.4738 153.32 58.106C151.946 56.7382 151.174 54.8831 151.174 52.9488C151.174 51.0144 151.946 49.1593 153.32 47.7915C154.695 46.4237 156.559 45.6553 158.502 45.6553C159.633 45.6553 160.701 45.9053 161.643 46.3638V28.9845L190.956 22.7329Z" fill="white"/>
<path d="M229.602 0V12.6294C229.602 13.5673 229.227 14.4667 228.56 15.1299C227.892 15.7931 226.987 16.1656 226.043 16.1656C225.099 16.1656 224.193 15.7931 223.526 15.1299C222.858 14.4667 222.483 13.5673 222.483 12.6294C222.483 11.6915 222.858 10.7921 223.526 10.1289C224.193 9.46573 225.099 9.09317 226.043 9.09317C226.592 9.09317 227.111 9.21441 227.568 9.43669V3.50592L217.398 5.65797V14.6501C217.398 15.588 217.023 16.4874 216.356 17.1506C215.688 17.8138 214.783 18.1863 213.839 18.1863C212.895 18.1863 211.989 17.8138 211.322 17.1506C210.654 16.4874 210.279 15.588 210.279 14.6501C210.279 13.7122 210.654 12.8128 211.322 12.1496C211.989 11.4864 212.895 11.1139 213.839 11.1139C214.388 11.1139 214.907 11.2351 215.364 11.4574V3.03106L229.602 0Z" fill="white"/>
<defs>
<linearGradient id="paint0_linear_198_32" x1="65.9255" y1="60.2422" x2="65.9255" y2="183" gradientUnits="userSpaceOnUse">
<stop stop-color="#D9042D"/>
<stop offset="0.473958" stop-color="#91033B"/>
<stop offset="1" stop-color="#520651"/>
</linearGradient>
</defs>
</svg>
